<svg xmlns="http://www.w3.org/2000/svg" xmlns:xlink="http://www.w3.org/1999/xlink" width="200" height="200" class="icon" p-id="1222" t="1645771694061" version="1.1" viewBox="0 0 1024 1024"><defs><style type="text/css"/></defs><path fill="#2502cf" d="M770.666667 149.333333l-18.56-10.666666-18.346667-10.666667-18.56 10.666667-18.346667 10.666666-18.56 10.666667-18.56 10.666667-18.346666 10.666666-18.56 10.666667-18.56 10.666667-18.346667 10.666666-18.56 10.666667-18.346667 10.666667-18.56 10.666666-18.346666 10.666667-18.56 10.666667-18.56 10.666666-18.346667 10.666667-18.56 10.666667-18.56 10.666666-18.346667 10.666667-18.56 10.666667-18.346666 10.666666-18.56 10.666667-18.56 10.666667-18.346667 10.666666-18.56 10.666667v512l18.56 10.666667 18.346667 10.666666 18.56 10.666667V416l18.56-10.666667 18.346666-10.666666 18.56-10.666667 18.346667-10.666667 18.56-10.666666 18.56-10.666667 18.346667-10.666667 18.56-10.666666 18.56-10.666667 18.346666-10.666667 18.56-10.666666 18.346667-10.666667 18.56-10.666667 18.346667-10.666666 18.56-10.666667 18.56-10.666667 18.346666-10.666666 18.56-10.666667 18.56-10.666667 18.346667-10.666666 18.56-10.666667 18.346667-10.666667 18.56-10.666666 18.56-10.666667z" p-id="1223"/><path fill="#2502cf" d="M549.013333 21.333333l-18.56-10.666666-18.346666-10.666667-18.56 10.666667-18.56 10.666666-18.346667 10.666667-18.56 10.666667-18.56 10.666666-18.346667 10.666667-18.56 10.666667-18.346666 10.666666-18.56 10.666667-18.56 10.666667-18.346667 10.666666-18.56 10.666667-18.346667 10.666667-18.56 10.666666-18.56 10.666667-18.346666 10.666667-18.56 10.666666-18.346667 10.666667-18.56 10.666667-18.56 10.666666-18.346667 10.666667-18.56 10.666667-18.346666 10.666666-18.56 10.666667v512l18.56 10.666667 18.346666 10.666666 18.56 10.666667V288l18.346667-10.666667 18.56-10.666666 18.56-10.666667 18.346667-10.666667 18.56-10.666666 18.346666-10.666667 18.56-10.666667 18.56-10.666666 18.346667-10.666667 18.56-10.666667 18.346667-10.666666 18.56-10.666667 18.56-10.666667 18.346666-10.666666 18.56-10.666667 18.346667-10.666667 18.56-10.666666 18.56-10.666667 18.346667-10.666667 18.56-10.666666 18.56-10.666667 18.346666-10.666667 18.56-10.666666 18.346667-10.666667z" p-id="1224"/><path fill="#2502cf" d="M659.733333 85.333333l-18.346666-10.666666-18.56-10.666667-18.56 10.666667-18.346667 10.666666-18.56 10.666667-18.346667 10.666667-18.56 10.666666-18.346666 10.666667-18.56 10.666667-18.56 10.666666-18.346667 10.666667-18.56 10.666667-18.56 10.666666-18.346667 10.666667-18.56 10.666667-18.346666 10.666666-18.56 10.666667-18.56 10.666667-18.346667 10.666666-18.56 10.666667-18.346667 10.666667-18.56 10.666666-18.56 10.666667-18.346666 10.666667-18.56 10.666666-18.346667 10.666667v512l18.346667 10.666667 18.56 10.666666 18.346666 10.666667V352l18.56-10.666667 18.56-10.666666 18.346667-10.666667 18.56-10.666667 18.346667-10.666666 18.56-10.666667 18.56-10.666667 18.346666-10.666666 18.56-10.666667 18.346667-10.666667 18.56-10.666666 18.56-10.666667 18.346667-10.666667 18.56-10.666666 18.56-10.666667 18.346666-10.666667 18.56-10.666666 18.346667-10.666667 18.56-10.666667 18.346667-10.666666 18.56-10.666667 18.56-10.666667 18.346666-10.666666 18.56-10.666667z" p-id="1225"/><path fill="#2502cf" d="M881.386667 213.333333l-18.346667-10.666666-18.56-10.666667-18.346667 10.666667-18.56 10.666666-18.346666 10.666667-18.56 10.666667-18.56 10.666666-18.346667 10.666667-18.56 10.666667-18.346667 10.666666-18.56 10.666667-18.56 10.666667-18.346666 10.666666-18.56 10.666667-18.56 10.666667-18.346667 10.666666-18.56 10.666667-18.346667 10.666667-18.56 10.666666-18.346666 10.666667-18.56 10.666667-18.56 10.666666-18.346667 10.666667-18.56 10.666667-18.56 10.666666-18.346667 10.666667v512l18.346667 10.666667 18.56 10.666666 18.56 10.666667V480l18.346667-10.666667 18.56-10.666666 18.56-10.666667 18.346666-10.666667 18.56-10.666666 18.346667-10.666667 18.56-10.666667 18.346667-10.666666 18.56-10.666667 18.56-10.666667 18.346666-10.666666 18.56-10.666667 18.56-10.666667 18.346667-10.666666 18.56-10.666667 18.346667-10.666667 18.56-10.666666 18.56-10.666667 18.346666-10.666667 18.56-10.666666 18.346667-10.666667 18.56-10.666667 18.346667-10.666666 18.56-10.666667z" p-id="1226"/><path fill="#2502cf" d="M955.413333 256l-18.56 10.666667-18.56 10.666666-18.56 10.666667-18.56 10.666667-18.56 10.666666-18.56 10.666667-18.56 10.666667-18.56 10.666666-18.56 10.666667-18.56 10.666667-18.56 10.666666-18.56 10.666667-18.56 10.666667-18.56 10.666666-18.56 10.666667-18.56 10.666667-18.56 10.666666-18.56 10.666667-18.56 10.666667-18.56 10.666666-18.56 10.666667-18.56 10.666667-18.56 10.666666-18.56 10.666667v512l18.56-10.666667 18.56-10.666666 18.56-10.666667V544l18.56-10.666667 18.56-10.666666 18.56-10.666667 18.56-10.666667 18.56-10.666666 18.56-10.666667 18.56-10.666667 18.56-10.666666 18.56-10.666667 18.56-10.666667 18.56-10.666666 18.56-10.666667 18.56-10.666667 18.56-10.666666 18.56-10.666667 18.56-10.666667 18.56-10.666666 18.56-10.666667v384l-18.56 10.666667-18.56 10.666666-18.56 10.666667-18.56 10.666667-18.56 10.666666-18.56 10.666667-18.56 10.666667-18.56 10.666666-18.56 10.666667-18.56 10.666667-18.56 10.666666v-85.333333l18.56-10.666667 18.56-10.666666 18.56-10.666667 18.56-10.666667 18.56-10.666666 18.56-10.666667 18.56-10.666667V480l-18.56 10.666667-18.56 10.666666-18.56 10.666667-18.56 10.666667-18.56 10.666666-18.56 10.666667-18.56 10.666667-18.56 10.666666-18.56 10.666667-18.56 10.666667v362.666666l18.56-10.666666 18.56-10.666667 18.56-10.666667 18.56-10.666666 18.56-10.666667 18.56-10.666667 18.56-10.666666 18.56-10.666667 18.56-10.666667 18.56-10.666666 18.56-10.666667 18.56-10.666667 18.56-10.666666 18.56-10.666667 18.56-10.666667 18.56-10.666666 18.56-10.666667V256zM696.853333 682.666667v-64l18.56-10.666667 18.56-10.666667 18.56-10.666666 18.56-10.666667v85.333333l-18.56 10.666667-18.56 10.666667-18.56 10.666666-18.56 10.666667v-21.333333z" p-id="1227"/></svg>