<svg xmlns="http://www.w3.org/2000/svg" width="40" height="40" fill="none" viewBox="0 0 40 40"><circle cx="20" cy="20" r="20" fill="#fff"/><path fill="#0F367F" d="M20.1572 35.3144C28.5283 35.3144 35.3144 28.5283 35.3144 20.1572C35.3144 11.7861 28.5283 5 20.1572 5C11.7861 5 5 11.7861 5 20.1572C5 28.5283 11.7861 35.3144 20.1572 35.3144Z"/><path fill="#fff" d="M16.7504 18.2228C16.3554 18.5408 15.7098 18.8491 15.1702 18.8491C13.879 18.8491 12.8287 17.7988 12.8287 16.5076C12.8287 15.2164 13.879 14.1565 15.1702 14.1565C16.259 14.1565 16.9335 14.6575 17.4057 15.756L19.699 15.2357C19.4003 14.2528 18.35 11.8149 15.1702 11.8149C12.5781 11.8149 10.4872 13.9156 10.4872 16.498C10.4872 19.09 12.5878 21.181 15.1702 21.181C16.153 21.181 17.1166 20.8726 17.9068 20.2945L16.7504 18.2228Z"/><path fill="#fff" d="M22.4548 24.3801L20.8167 18.9552L19.6508 15.0815L17.4056 15.7561L18.2825 18.6468L18.7546 20.2174L19.3424 22.1639L20.2096 25.0643L22.4548 24.3801Z"/><path fill="#fff" d="M28.7856 12.3736C28.7856 12.3736 27.4848 11.8147 24.7193 14.2526L17.9164 20.3039L16.6252 18.3478L22.9656 12.6531C26.0491 10.2056 28.7856 12.3736 28.7856 12.3736Z"/><path fill="#fff" d="M23.1871 21.846C23.6208 21.5087 24.1411 21.316 24.6903 21.2967C25.9815 21.3256 27.0126 22.3952 26.9837 23.6864C26.9548 24.9391 25.943 25.9605 24.6903 25.9797C23.6015 25.9797 22.927 25.4787 22.4548 24.3802L20.1808 24.968C20.4795 25.9508 21.5105 28.3309 24.6903 28.3309C27.2824 28.3309 29.3734 26.2303 29.3734 23.6479C29.3734 21.0655 27.2727 18.9648 24.6903 18.9648C23.7075 18.9648 22.7439 19.2732 21.9441 19.8513L23.1871 21.846Z"/><path fill="#fff" d="M11.0749 27.7623C11.0749 27.7623 12.3757 28.3308 15.1412 25.8833L21.9441 19.832L23.2353 21.7881L16.8949 27.4829C13.8115 29.9304 11.0749 27.7623 11.0749 27.7623Z"/><path fill="url(#paint0_linear)" d="M19.6629 15.4724L17.7877 17.1916L17.3564 15.7221L19.541 15.0498L19.6629 15.4724Z"/><path fill="#fff" d="M18.591 19.6971L20.5278 17.9819L20.9614 19.4466L18.7163 20.1211L18.591 19.6971Z"/><path fill="#fff" d="M18.6391 20.1205L20.8553 18.0488L20.9613 18.1645V20.1205H18.6391Z"/><path fill="#fff" d="M18.591 18.377L19.0246 17.9819H20.788L20.8554 18.0494L18.6392 20.1211H18.591V18.377Z"/><path fill="#fff" d="M19.0246 17.9819L18.591 18.377V17.9819H19.0246Z"/><path fill="#fff" d="M21.26 20.4293L19.3328 22.1638L18.8896 20.6895L21.1347 20.0054L21.26 20.4293Z"/><path fill="#fff" d="M21.2214 20.0054L18.9956 22.0771L18.8896 21.9711V20.0054H21.2214Z"/><path fill="#fff" d="M21.2599 21.7495L20.8263 22.1638H19.0726L18.9955 22.0771L21.2214 20.0054H21.2599V21.7495Z"/><path fill="#fff" d="M20.8263 22.1634L21.2599 21.749V22.1634H20.8263Z"/><path fill="url(#paint1_linear)" d="M20.1571 24.6469L22.0323 22.7935L22.4636 24.3689L20.279 25.1L20.1571 24.6469Z"/><defs><linearGradient id="paint0_linear" x1="18.24" x2="19.857" y1="15.656" y2="17.347" gradientUnits="userSpaceOnUse"><stop offset=".22" stop-opacity="0"/><stop offset=".77" stop-opacity=".4"/></linearGradient><linearGradient id="paint1_linear" x1="21.582" x2="19.847" y1="24.447" y2="22.755" gradientUnits="userSpaceOnUse"><stop offset=".22" stop-opacity="0"/><stop offset=".77" stop-opacity=".4"/></linearGradient></defs></svg>